<mxfile host="app.diagrams.net" modified="2021-06-15T13:29:09.500Z" agent="5.0 (Windows NT 10.0; Win64; x64) AppleWebKit/537.36 (KHTML, like Gecko) Chrome/91.0.4472.101 Safari/537.36" etag="nWtSOmIvVFfDpf8J3qF0" version="14.7.7" type="github">
  <diagram id="IgMcTNnlk7AGEsVQdIP8" name="Page-1">
    <mxGraphModel dx="2858" dy="1134" grid="1" gridSize="10" guides="1" tooltips="1" connect="1" arrows="1" fold="1" page="1" pageScale="1" pageWidth="827" pageHeight="1169" math="0" shadow="0">
      <root>
        <mxCell id="0" />
        <mxCell id="1" parent="0" />
        <mxCell id="ErHJrtxRJ88bC5uLToR5-47" style="edgeStyle=orthogonalEdgeStyle;rounded=0;orthogonalLoop=1;jettySize=auto;html=1;exitX=0.5;exitY=0;exitDx=0;exitDy=0;entryX=0.5;entryY=1;entryDx=0;entryDy=0;endArrow=none;endFill=0;" edge="1" parent="1" source="ErHJrtxRJ88bC5uLToR5-1" target="ErHJrtxRJ88bC5uLToR5-41">
          <mxGeometry relative="1" as="geometry" />
        </mxCell>
        <mxCell id="ErHJrtxRJ88bC5uLToR5-48" style="edgeStyle=orthogonalEdgeStyle;rounded=0;orthogonalLoop=1;jettySize=auto;html=1;exitX=0.5;exitY=0;exitDx=0;exitDy=0;entryX=0.5;entryY=1;entryDx=0;entryDy=0;endArrow=none;endFill=0;" edge="1" parent="1" source="ErHJrtxRJ88bC5uLToR5-1" target="ErHJrtxRJ88bC5uLToR5-44">
          <mxGeometry relative="1" as="geometry" />
        </mxCell>
        <mxCell id="ErHJrtxRJ88bC5uLToR5-49" style="edgeStyle=orthogonalEdgeStyle;rounded=0;orthogonalLoop=1;jettySize=auto;html=1;exitX=0.5;exitY=0;exitDx=0;exitDy=0;entryX=0.5;entryY=1;entryDx=0;entryDy=0;endArrow=none;endFill=0;" edge="1" parent="1" source="ErHJrtxRJ88bC5uLToR5-1" target="ErHJrtxRJ88bC5uLToR5-43">
          <mxGeometry relative="1" as="geometry" />
        </mxCell>
        <mxCell id="ErHJrtxRJ88bC5uLToR5-50" style="edgeStyle=orthogonalEdgeStyle;rounded=0;orthogonalLoop=1;jettySize=auto;html=1;exitX=0.5;exitY=0;exitDx=0;exitDy=0;entryX=0.5;entryY=1;entryDx=0;entryDy=0;endArrow=none;endFill=0;" edge="1" parent="1" source="ErHJrtxRJ88bC5uLToR5-1" target="ErHJrtxRJ88bC5uLToR5-42">
          <mxGeometry relative="1" as="geometry" />
        </mxCell>
        <mxCell id="ErHJrtxRJ88bC5uLToR5-51" style="edgeStyle=orthogonalEdgeStyle;rounded=0;orthogonalLoop=1;jettySize=auto;html=1;exitX=0.5;exitY=0;exitDx=0;exitDy=0;entryX=0.5;entryY=1;entryDx=0;entryDy=0;endArrow=none;endFill=0;" edge="1" parent="1" source="ErHJrtxRJ88bC5uLToR5-1" target="ErHJrtxRJ88bC5uLToR5-46">
          <mxGeometry relative="1" as="geometry" />
        </mxCell>
        <mxCell id="ErHJrtxRJ88bC5uLToR5-80" style="edgeStyle=orthogonalEdgeStyle;rounded=0;orthogonalLoop=1;jettySize=auto;html=1;exitX=0.75;exitY=0;exitDx=0;exitDy=0;entryX=0;entryY=0.5;entryDx=0;entryDy=0;endArrow=none;endFill=0;" edge="1" parent="1" source="ErHJrtxRJ88bC5uLToR5-1" target="ErHJrtxRJ88bC5uLToR5-78">
          <mxGeometry relative="1" as="geometry" />
        </mxCell>
        <mxCell id="ErHJrtxRJ88bC5uLToR5-81" style="edgeStyle=orthogonalEdgeStyle;rounded=0;orthogonalLoop=1;jettySize=auto;html=1;exitX=1;exitY=0;exitDx=0;exitDy=0;entryX=0.5;entryY=1;entryDx=0;entryDy=0;endArrow=none;endFill=0;" edge="1" parent="1" source="ErHJrtxRJ88bC5uLToR5-1" target="ErHJrtxRJ88bC5uLToR5-78">
          <mxGeometry relative="1" as="geometry" />
        </mxCell>
        <mxCell id="ErHJrtxRJ88bC5uLToR5-82" style="edgeStyle=orthogonalEdgeStyle;rounded=0;orthogonalLoop=1;jettySize=auto;html=1;exitX=1;exitY=0.5;exitDx=0;exitDy=0;entryX=0;entryY=0.5;entryDx=0;entryDy=0;endArrow=none;endFill=0;" edge="1" parent="1" source="ErHJrtxRJ88bC5uLToR5-1" target="ErHJrtxRJ88bC5uLToR5-75">
          <mxGeometry relative="1" as="geometry" />
        </mxCell>
        <mxCell id="ErHJrtxRJ88bC5uLToR5-84" style="edgeStyle=orthogonalEdgeStyle;rounded=0;orthogonalLoop=1;jettySize=auto;html=1;exitX=0.5;exitY=1;exitDx=0;exitDy=0;entryX=0.5;entryY=0;entryDx=0;entryDy=0;endArrow=none;endFill=0;" edge="1" parent="1" source="ErHJrtxRJ88bC5uLToR5-1" target="ErHJrtxRJ88bC5uLToR5-73">
          <mxGeometry relative="1" as="geometry" />
        </mxCell>
        <mxCell id="ErHJrtxRJ88bC5uLToR5-1" value="NOTICIAS" style="rounded=0;whiteSpace=wrap;html=1;" vertex="1" parent="1">
          <mxGeometry x="350" y="380" width="120" height="60" as="geometry" />
        </mxCell>
        <mxCell id="ErHJrtxRJ88bC5uLToR5-63" style="edgeStyle=orthogonalEdgeStyle;rounded=0;orthogonalLoop=1;jettySize=auto;html=1;exitX=1;exitY=0.5;exitDx=0;exitDy=0;entryX=0;entryY=0.5;entryDx=0;entryDy=0;endArrow=none;endFill=0;" edge="1" parent="1" source="ErHJrtxRJ88bC5uLToR5-2" target="ErHJrtxRJ88bC5uLToR5-25">
          <mxGeometry relative="1" as="geometry" />
        </mxCell>
        <mxCell id="ErHJrtxRJ88bC5uLToR5-64" style="edgeStyle=orthogonalEdgeStyle;rounded=0;orthogonalLoop=1;jettySize=auto;html=1;exitX=1;exitY=0.5;exitDx=0;exitDy=0;entryX=0;entryY=0.5;entryDx=0;entryDy=0;endArrow=none;endFill=0;" edge="1" parent="1" source="ErHJrtxRJ88bC5uLToR5-2" target="ErHJrtxRJ88bC5uLToR5-10">
          <mxGeometry relative="1" as="geometry" />
        </mxCell>
        <mxCell id="ErHJrtxRJ88bC5uLToR5-65" style="edgeStyle=orthogonalEdgeStyle;rounded=0;orthogonalLoop=1;jettySize=auto;html=1;exitX=1;exitY=0.5;exitDx=0;exitDy=0;entryX=0;entryY=0.5;entryDx=0;entryDy=0;endArrow=none;endFill=0;" edge="1" parent="1" source="ErHJrtxRJ88bC5uLToR5-2" target="ErHJrtxRJ88bC5uLToR5-24">
          <mxGeometry relative="1" as="geometry" />
        </mxCell>
        <mxCell id="ErHJrtxRJ88bC5uLToR5-66" style="edgeStyle=orthogonalEdgeStyle;rounded=0;orthogonalLoop=1;jettySize=auto;html=1;exitX=1;exitY=0.5;exitDx=0;exitDy=0;entryX=0;entryY=0.5;entryDx=0;entryDy=0;endArrow=none;endFill=0;" edge="1" parent="1" source="ErHJrtxRJ88bC5uLToR5-2" target="ErHJrtxRJ88bC5uLToR5-26">
          <mxGeometry relative="1" as="geometry" />
        </mxCell>
        <mxCell id="ErHJrtxRJ88bC5uLToR5-2" value="AGENCIAS DE NOTICIAS" style="rounded=0;whiteSpace=wrap;html=1;" vertex="1" parent="1">
          <mxGeometry x="810" y="380" width="120" height="60" as="geometry" />
        </mxCell>
        <mxCell id="ErHJrtxRJ88bC5uLToR5-20" style="edgeStyle=orthogonalEdgeStyle;rounded=0;orthogonalLoop=1;jettySize=auto;html=1;exitX=0.5;exitY=1;exitDx=0;exitDy=0;entryX=0.5;entryY=0;entryDx=0;entryDy=0;endArrow=none;endFill=0;" edge="1" parent="1" source="ErHJrtxRJ88bC5uLToR5-4" target="ErHJrtxRJ88bC5uLToR5-19">
          <mxGeometry relative="1" as="geometry" />
        </mxCell>
        <mxCell id="ErHJrtxRJ88bC5uLToR5-21" style="edgeStyle=orthogonalEdgeStyle;rounded=0;orthogonalLoop=1;jettySize=auto;html=1;exitX=0.5;exitY=1;exitDx=0;exitDy=0;entryX=0.5;entryY=0;entryDx=0;entryDy=0;endArrow=none;endFill=0;" edge="1" parent="1" source="ErHJrtxRJ88bC5uLToR5-4" target="ErHJrtxRJ88bC5uLToR5-17">
          <mxGeometry relative="1" as="geometry" />
        </mxCell>
        <mxCell id="ErHJrtxRJ88bC5uLToR5-22" style="edgeStyle=orthogonalEdgeStyle;rounded=0;orthogonalLoop=1;jettySize=auto;html=1;exitX=0.5;exitY=1;exitDx=0;exitDy=0;entryX=0.5;entryY=0;entryDx=0;entryDy=0;endArrow=none;endFill=0;" edge="1" parent="1" source="ErHJrtxRJ88bC5uLToR5-4" target="ErHJrtxRJ88bC5uLToR5-16">
          <mxGeometry relative="1" as="geometry" />
        </mxCell>
        <mxCell id="ErHJrtxRJ88bC5uLToR5-23" style="edgeStyle=orthogonalEdgeStyle;rounded=0;orthogonalLoop=1;jettySize=auto;html=1;exitX=0.5;exitY=1;exitDx=0;exitDy=0;entryX=0.5;entryY=0;entryDx=0;entryDy=0;endArrow=none;endFill=0;" edge="1" parent="1" source="ErHJrtxRJ88bC5uLToR5-4" target="ErHJrtxRJ88bC5uLToR5-18">
          <mxGeometry relative="1" as="geometry" />
        </mxCell>
        <mxCell id="ErHJrtxRJ88bC5uLToR5-4" value="IMPLICADOS" style="rounded=0;whiteSpace=wrap;html=1;" vertex="1" parent="1">
          <mxGeometry x="350" y="660" width="120" height="60" as="geometry" />
        </mxCell>
        <mxCell id="ErHJrtxRJ88bC5uLToR5-10" value="&lt;u&gt;CODIGO DE AGENCIA&lt;/u&gt;" style="ellipse;whiteSpace=wrap;html=1;" vertex="1" parent="1">
          <mxGeometry x="1010" y="340" width="120" height="60" as="geometry" />
        </mxCell>
        <mxCell id="ErHJrtxRJ88bC5uLToR5-16" value="NOMBRE" style="ellipse;whiteSpace=wrap;html=1;" vertex="1" parent="1">
          <mxGeometry x="413" y="830" width="120" height="60" as="geometry" />
        </mxCell>
        <mxCell id="ErHJrtxRJ88bC5uLToR5-17" value="FECHA DE NACIMIENTO" style="ellipse;whiteSpace=wrap;html=1;" vertex="1" parent="1">
          <mxGeometry x="150" y="830" width="120" height="60" as="geometry" />
        </mxCell>
        <mxCell id="ErHJrtxRJ88bC5uLToR5-18" value="CALIDAD" style="ellipse;whiteSpace=wrap;html=1;" vertex="1" parent="1">
          <mxGeometry x="550" y="830" width="120" height="60" as="geometry" />
        </mxCell>
        <mxCell id="ErHJrtxRJ88bC5uLToR5-19" value="&lt;u&gt;CODIGO&lt;/u&gt;" style="ellipse;whiteSpace=wrap;html=1;" vertex="1" parent="1">
          <mxGeometry x="280" y="830" width="120" height="60" as="geometry" />
        </mxCell>
        <mxCell id="ErHJrtxRJ88bC5uLToR5-24" value="NOMBRE" style="ellipse;whiteSpace=wrap;html=1;" vertex="1" parent="1">
          <mxGeometry x="1010" y="420" width="120" height="60" as="geometry" />
        </mxCell>
        <mxCell id="ErHJrtxRJ88bC5uLToR5-25" value="&lt;font style=&quot;font-size: 12px&quot;&gt;A&lt;span style=&quot;color: rgb(32 , 33 , 36) ; font-family: &amp;#34;arial&amp;#34; , sans-serif ; text-align: left ; background-color: rgb(255 , 255 , 255)&quot;&gt;Ã‘O DE CREACION&lt;/span&gt;&lt;/font&gt;" style="ellipse;whiteSpace=wrap;html=1;" vertex="1" parent="1">
          <mxGeometry x="1010" y="260" width="120" height="60" as="geometry" />
        </mxCell>
        <mxCell id="ErHJrtxRJ88bC5uLToR5-26" value="HORA" style="ellipse;whiteSpace=wrap;html=1;" vertex="1" parent="1">
          <mxGeometry x="1010" y="500" width="120" height="60" as="geometry" />
        </mxCell>
        <mxCell id="ErHJrtxRJ88bC5uLToR5-41" value="&lt;u&gt;CODIGO&lt;/u&gt;" style="ellipse;whiteSpace=wrap;html=1;" vertex="1" parent="1">
          <mxGeometry x="350" y="60" width="120" height="60" as="geometry" />
        </mxCell>
        <mxCell id="ErHJrtxRJ88bC5uLToR5-42" value="FECHA" style="ellipse;whiteSpace=wrap;html=1;" vertex="1" parent="1">
          <mxGeometry x="610" y="60" width="120" height="60" as="geometry" />
        </mxCell>
        <mxCell id="ErHJrtxRJ88bC5uLToR5-43" value="TITULAR" style="ellipse;whiteSpace=wrap;html=1;" vertex="1" parent="1">
          <mxGeometry x="480" y="60" width="120" height="60" as="geometry" />
        </mxCell>
        <mxCell id="ErHJrtxRJ88bC5uLToR5-44" value="TEXTO" style="ellipse;whiteSpace=wrap;html=1;" vertex="1" parent="1">
          <mxGeometry x="220" y="60" width="120" height="60" as="geometry" />
        </mxCell>
        <mxCell id="ErHJrtxRJ88bC5uLToR5-46" value="HORA" style="ellipse;whiteSpace=wrap;html=1;" vertex="1" parent="1">
          <mxGeometry x="90" y="60" width="120" height="60" as="geometry" />
        </mxCell>
        <mxCell id="ErHJrtxRJ88bC5uLToR5-68" style="edgeStyle=orthogonalEdgeStyle;rounded=0;orthogonalLoop=1;jettySize=auto;html=1;exitX=0;exitY=0.5;exitDx=0;exitDy=0;entryX=1;entryY=0.5;entryDx=0;entryDy=0;endArrow=none;endFill=0;" edge="1" parent="1" source="ErHJrtxRJ88bC5uLToR5-57" target="ErHJrtxRJ88bC5uLToR5-58">
          <mxGeometry relative="1" as="geometry" />
        </mxCell>
        <mxCell id="ErHJrtxRJ88bC5uLToR5-69" style="edgeStyle=orthogonalEdgeStyle;rounded=0;orthogonalLoop=1;jettySize=auto;html=1;exitX=0;exitY=0.5;exitDx=0;exitDy=0;entryX=1;entryY=0.5;entryDx=0;entryDy=0;endArrow=none;endFill=0;" edge="1" parent="1" source="ErHJrtxRJ88bC5uLToR5-57" target="ErHJrtxRJ88bC5uLToR5-62">
          <mxGeometry relative="1" as="geometry" />
        </mxCell>
        <mxCell id="ErHJrtxRJ88bC5uLToR5-70" style="edgeStyle=orthogonalEdgeStyle;rounded=0;orthogonalLoop=1;jettySize=auto;html=1;exitX=0;exitY=0.5;exitDx=0;exitDy=0;entryX=1;entryY=0.5;entryDx=0;entryDy=0;endArrow=none;endFill=0;" edge="1" parent="1" source="ErHJrtxRJ88bC5uLToR5-57" target="ErHJrtxRJ88bC5uLToR5-59">
          <mxGeometry relative="1" as="geometry" />
        </mxCell>
        <mxCell id="ErHJrtxRJ88bC5uLToR5-71" style="edgeStyle=orthogonalEdgeStyle;rounded=0;orthogonalLoop=1;jettySize=auto;html=1;exitX=0;exitY=0.5;exitDx=0;exitDy=0;entryX=1;entryY=0.5;entryDx=0;entryDy=0;endArrow=none;endFill=0;" edge="1" parent="1" source="ErHJrtxRJ88bC5uLToR5-57" target="ErHJrtxRJ88bC5uLToR5-61">
          <mxGeometry relative="1" as="geometry" />
        </mxCell>
        <mxCell id="ErHJrtxRJ88bC5uLToR5-72" style="edgeStyle=orthogonalEdgeStyle;rounded=0;orthogonalLoop=1;jettySize=auto;html=1;exitX=0;exitY=0.5;exitDx=0;exitDy=0;entryX=1;entryY=0.5;entryDx=0;entryDy=0;endArrow=none;endFill=0;" edge="1" parent="1" source="ErHJrtxRJ88bC5uLToR5-57" target="ErHJrtxRJ88bC5uLToR5-60">
          <mxGeometry relative="1" as="geometry" />
        </mxCell>
        <mxCell id="ErHJrtxRJ88bC5uLToR5-88" style="edgeStyle=orthogonalEdgeStyle;rounded=0;orthogonalLoop=1;jettySize=auto;html=1;exitX=0.5;exitY=1;exitDx=0;exitDy=0;entryX=0.5;entryY=0;entryDx=0;entryDy=0;endArrow=none;endFill=0;" edge="1" parent="1" source="ErHJrtxRJ88bC5uLToR5-57" target="ErHJrtxRJ88bC5uLToR5-77">
          <mxGeometry relative="1" as="geometry" />
        </mxCell>
        <mxCell id="ErHJrtxRJ88bC5uLToR5-57" value="PERIODISTAS" style="rounded=0;whiteSpace=wrap;html=1;" vertex="1" parent="1">
          <mxGeometry x="-120" y="380" width="120" height="60" as="geometry" />
        </mxCell>
        <mxCell id="ErHJrtxRJ88bC5uLToR5-58" value="&lt;u&gt;CODIGO&lt;/u&gt;" style="ellipse;whiteSpace=wrap;html=1;" vertex="1" parent="1">
          <mxGeometry x="-400" y="380" width="120" height="60" as="geometry" />
        </mxCell>
        <mxCell id="ErHJrtxRJ88bC5uLToR5-60" value="DIRECCION" style="ellipse;whiteSpace=wrap;html=1;" vertex="1" parent="1">
          <mxGeometry x="-400" y="525" width="120" height="60" as="geometry" />
        </mxCell>
        <mxCell id="ErHJrtxRJ88bC5uLToR5-61" value="TELEFONO" style="ellipse;whiteSpace=wrap;html=1;" vertex="1" parent="1">
          <mxGeometry x="-400" y="230" width="120" height="60" as="geometry" />
        </mxCell>
        <mxCell id="ErHJrtxRJ88bC5uLToR5-62" value="NUMERO DE NOTICIAS" style="ellipse;whiteSpace=wrap;html=1;" vertex="1" parent="1">
          <mxGeometry x="-400" y="310" width="120" height="60" as="geometry" />
        </mxCell>
        <mxCell id="ErHJrtxRJ88bC5uLToR5-59" value="NOMBRE" style="ellipse;whiteSpace=wrap;html=1;" vertex="1" parent="1">
          <mxGeometry x="-400" y="450" width="120" height="60" as="geometry" />
        </mxCell>
        <mxCell id="ErHJrtxRJ88bC5uLToR5-85" style="edgeStyle=orthogonalEdgeStyle;rounded=0;orthogonalLoop=1;jettySize=auto;html=1;exitX=0.5;exitY=1;exitDx=0;exitDy=0;entryX=0.5;entryY=0;entryDx=0;entryDy=0;endArrow=none;endFill=0;" edge="1" parent="1" source="ErHJrtxRJ88bC5uLToR5-73" target="ErHJrtxRJ88bC5uLToR5-4">
          <mxGeometry relative="1" as="geometry" />
        </mxCell>
        <mxCell id="ErHJrtxRJ88bC5uLToR5-73" value="TIENE" style="rhombus;whiteSpace=wrap;html=1;" vertex="1" parent="1">
          <mxGeometry x="370" y="505" width="80" height="80" as="geometry" />
        </mxCell>
        <mxCell id="ErHJrtxRJ88bC5uLToR5-83" style="edgeStyle=orthogonalEdgeStyle;rounded=0;orthogonalLoop=1;jettySize=auto;html=1;exitX=1;exitY=0.5;exitDx=0;exitDy=0;entryX=0;entryY=0.5;entryDx=0;entryDy=0;endArrow=none;endFill=0;" edge="1" parent="1" source="ErHJrtxRJ88bC5uLToR5-75" target="ErHJrtxRJ88bC5uLToR5-2">
          <mxGeometry relative="1" as="geometry" />
        </mxCell>
        <mxCell id="ErHJrtxRJ88bC5uLToR5-75" value="DARSE" style="rhombus;whiteSpace=wrap;html=1;" vertex="1" parent="1">
          <mxGeometry x="610" y="370" width="80" height="80" as="geometry" />
        </mxCell>
        <mxCell id="ErHJrtxRJ88bC5uLToR5-86" style="edgeStyle=orthogonalEdgeStyle;rounded=0;orthogonalLoop=1;jettySize=auto;html=1;exitX=1;exitY=0.5;exitDx=0;exitDy=0;entryX=0;entryY=0.5;entryDx=0;entryDy=0;endArrow=none;endFill=0;" edge="1" parent="1" source="ErHJrtxRJ88bC5uLToR5-76" target="ErHJrtxRJ88bC5uLToR5-1">
          <mxGeometry relative="1" as="geometry" />
        </mxCell>
        <mxCell id="ErHJrtxRJ88bC5uLToR5-87" style="edgeStyle=orthogonalEdgeStyle;rounded=0;orthogonalLoop=1;jettySize=auto;html=1;exitX=0;exitY=0.5;exitDx=0;exitDy=0;entryX=1;entryY=0.5;entryDx=0;entryDy=0;endArrow=none;endFill=0;" edge="1" parent="1" source="ErHJrtxRJ88bC5uLToR5-76" target="ErHJrtxRJ88bC5uLToR5-57">
          <mxGeometry relative="1" as="geometry" />
        </mxCell>
        <mxCell id="ErHJrtxRJ88bC5uLToR5-76" value="CUBRE" style="rhombus;whiteSpace=wrap;html=1;" vertex="1" parent="1">
          <mxGeometry x="110" y="370" width="80" height="80" as="geometry" />
        </mxCell>
        <mxCell id="ErHJrtxRJ88bC5uLToR5-89" style="edgeStyle=orthogonalEdgeStyle;rounded=0;orthogonalLoop=1;jettySize=auto;html=1;exitX=1;exitY=0.5;exitDx=0;exitDy=0;entryX=0;entryY=0.5;entryDx=0;entryDy=0;endArrow=none;endFill=0;" edge="1" parent="1" source="ErHJrtxRJ88bC5uLToR5-77" target="ErHJrtxRJ88bC5uLToR5-4">
          <mxGeometry relative="1" as="geometry" />
        </mxCell>
        <mxCell id="ErHJrtxRJ88bC5uLToR5-77" value="HABLA" style="rhombus;whiteSpace=wrap;html=1;" vertex="1" parent="1">
          <mxGeometry x="-100" y="650" width="80" height="80" as="geometry" />
        </mxCell>
        <mxCell id="ErHJrtxRJ88bC5uLToR5-78" value="RELACIONA" style="rhombus;whiteSpace=wrap;html=1;" vertex="1" parent="1">
          <mxGeometry x="480" y="260" width="80" height="80" as="geometry" />
        </mxCell>
        <mxCell id="ErHJrtxRJ88bC5uLToR5-90" value="M:N" style="text;html=1;strokeColor=none;fillColor=none;align=center;verticalAlign=middle;whiteSpace=wrap;rounded=0;" vertex="1" parent="1">
          <mxGeometry x="-80" y="740" width="40" height="20" as="geometry" />
        </mxCell>
        <mxCell id="ErHJrtxRJ88bC5uLToR5-91" value="1:M" style="text;html=1;strokeColor=none;fillColor=none;align=center;verticalAlign=middle;whiteSpace=wrap;rounded=0;" vertex="1" parent="1">
          <mxGeometry x="-50" y="450" width="40" height="20" as="geometry" />
        </mxCell>
        <mxCell id="ErHJrtxRJ88bC5uLToR5-92" value="1:N" style="text;html=1;strokeColor=none;fillColor=none;align=center;verticalAlign=middle;whiteSpace=wrap;rounded=0;" vertex="1" parent="1">
          <mxGeometry x="300" y="660" width="40" height="20" as="geometry" />
        </mxCell>
        <mxCell id="ErHJrtxRJ88bC5uLToR5-93" value="M:N" style="text;html=1;strokeColor=none;fillColor=none;align=center;verticalAlign=middle;whiteSpace=wrap;rounded=0;" vertex="1" parent="1">
          <mxGeometry x="460" y="535" width="40" height="20" as="geometry" />
        </mxCell>
        <mxCell id="ErHJrtxRJ88bC5uLToR5-94" value="1:M" style="text;html=1;strokeColor=none;fillColor=none;align=center;verticalAlign=middle;whiteSpace=wrap;rounded=0;" vertex="1" parent="1">
          <mxGeometry x="420" y="440" width="40" height="20" as="geometry" />
        </mxCell>
        <mxCell id="ErHJrtxRJ88bC5uLToR5-95" value="1:N" style="text;html=1;strokeColor=none;fillColor=none;align=center;verticalAlign=middle;whiteSpace=wrap;rounded=0;" vertex="1" parent="1">
          <mxGeometry x="420" y="630" width="40" height="20" as="geometry" />
        </mxCell>
        <mxCell id="ErHJrtxRJ88bC5uLToR5-96" value="1:N" style="text;html=1;strokeColor=none;fillColor=none;align=center;verticalAlign=middle;whiteSpace=wrap;rounded=0;" vertex="1" parent="1">
          <mxGeometry y="380" width="40" height="20" as="geometry" />
        </mxCell>
        <mxCell id="ErHJrtxRJ88bC5uLToR5-97" value="N:M" style="text;html=1;strokeColor=none;fillColor=none;align=center;verticalAlign=middle;whiteSpace=wrap;rounded=0;" vertex="1" parent="1">
          <mxGeometry x="130" y="340" width="40" height="20" as="geometry" />
        </mxCell>
        <mxCell id="ErHJrtxRJ88bC5uLToR5-98" value="1:M" style="text;html=1;strokeColor=none;fillColor=none;align=center;verticalAlign=middle;whiteSpace=wrap;rounded=0;" vertex="1" parent="1">
          <mxGeometry x="300" y="380" width="40" height="20" as="geometry" />
        </mxCell>
        <mxCell id="ErHJrtxRJ88bC5uLToR5-99" value="N:M" style="text;html=1;strokeColor=none;fillColor=none;align=center;verticalAlign=middle;whiteSpace=wrap;rounded=0;" vertex="1" parent="1">
          <mxGeometry x="630" y="340" width="40" height="20" as="geometry" />
        </mxCell>
        <mxCell id="ErHJrtxRJ88bC5uLToR5-100" value="1:N" style="text;html=1;strokeColor=none;fillColor=none;align=center;verticalAlign=middle;whiteSpace=wrap;rounded=0;" vertex="1" parent="1">
          <mxGeometry x="500" y="380" width="40" height="20" as="geometry" />
        </mxCell>
        <mxCell id="ErHJrtxRJ88bC5uLToR5-101" value="1:M" style="text;html=1;strokeColor=none;fillColor=none;align=center;verticalAlign=middle;whiteSpace=wrap;rounded=0;" vertex="1" parent="1">
          <mxGeometry x="770" y="380" width="40" height="20" as="geometry" />
        </mxCell>
      </root>
    </mxGraphModel>
  </diagram>
</mxfile>
